{
    "asset" : {
        "generator" : "Khronos glTF Blender I/O v3.4.50",
        "version" : "2.0"
    },
    "scene" : 0,
    "scenes" : [
        {
            "name" : "Scene",
            "nodes" : [
                14
            ]
        }
    ],
    "nodes" : [
        {
            "mesh" : 0,
            "name" : "chessPieces_KIT bishop_Model"
        },
        {
            "mesh" : 1,
            "name" : "chessPieces_KIT knight_Model"
        },
        {
            "mesh" : 2,
            "name" : "chessPieces_KIT pawn_Model"
        },
        {
            "mesh" : 3,
            "name" : "chessPieces_KIT queen_Model"
        },
        {
            "mesh" : 4,
            "name" : "chessPieces_KIT rook_Model"
        },
        {
            "name" : "default"
        },
        {
            "name" : "default_node"
        },
        {
            "name" : "default_node_0"
        },
        {
            "name" : "default_node_1"
        },
        {
            "name" : "default_node_2"
        },
        {
            "name" : "default_node_3"
        },
        {
            "name" : "default_node_4"
        },
        {
            "name" : "default_node_5"
        },
        {
            "mesh" : 5,
            "name" : "king_Model"
        },
        {
            "children" : [
                0,
                1,
                2,
                3,
                4,
                5,
                6,
                7,
                8,
                9,
                10,
                11,
                12,
                13
            ],
            "name" : "input.obj"
        }
    ],
    "materials" : [
        {
            "name" : "initialShadingGroup",
            "pbrMetallicRoughness" : {
                "baseColorFactor" : [
                    0.6000000238418579,
                    0.6000000238418579,
                    0.6000000238418579,
                    1
                ],
                "metallicFactor" : 0
            }
        }
    ],
    "meshes" : [
        {
            "name" : "chessPieces_KIT bishop_Model",
            "primitives" : [
                {
                    "attributes" : {
                        "POSITION" : 0,
                        "TEXCOORD_0" : 1,
                        "NORMAL" : 2
                    },
                    "indices" : 3,
                    "material" : 0
                }
            ]
        },
        {
            "name" : "chessPieces_KIT knightStand_01 knight_Model",
            "primitives" : [
                {
                    "attributes" : {
                        "POSITION" : 4,
                        "TEXCOORD_0" : 5,
                        "NORMAL" : 6
                    },
                    "indices" : 7,
                    "material" : 0
                }
            ]
        },
        {
            "name" : "chessPieces_KIT pawn_Model",
            "primitives" : [
                {
                    "attributes" : {
                        "POSITION" : 8,
                        "TEXCOORD_0" : 9,
                        "NORMAL" : 10
                    },
                    "indices" : 11,
                    "material" : 0
                }
            ]
        },
        {
            "name" : "chessPieces_KIT queen_Model",
            "primitives" : [
                {
                    "attributes" : {
                        "POSITION" : 12,
                        "TEXCOORD_0" : 13,
                        "NORMAL" : 14
                    },
                    "indices" : 15,
                    "material" : 0
                }
            ]
        },
        {
            "name" : "chessPieces_KIT rook_Model",
            "primitives" : [
                {
                    "attributes" : {
                        "POSITION" : 16,
                        "TEXCOORD_0" : 17,
                        "NORMAL" : 18
                    },
                    "indices" : 19,
                    "material" : 0
                }
            ]
        },
        {
            "name" : "king_01 king_Model chessPieces_KIT",
            "primitives" : [
                {
                    "attributes" : {
                        "POSITION" : 20,
                        "TEXCOORD_0" : 21,
                        "NORMAL" : 22
                    },
                    "indices" : 23,
                    "material" : 0
                }
            ]
        }
    ],
    "accessors" : [
        {
            "bufferView" : 0,
            "componentType" : 5126,
            "count" : 4016,
            "max" : [
                2.165282964706421,
                9.02662467956543,
                1.7952489852905273
            ],
            "min" : [
                -1.4594990015029907,
                0.8687959909439087,
                -1.8295650482177734
            ],
            "type" : "VEC3"
        },
        {
            "bufferView" : 1,
            "componentType" : 5126,
            "count" : 4016,
            "type" : "VEC2"
        },
        {
            "bufferView" : 2,
            "componentType" : 5126,
            "count" : 4016,
            "type" : "VEC3"
        },
        {
            "bufferView" : 3,
            "componentType" : 5123,
            "count" : 19674,
            "type" : "SCALAR"
        },
        {
            "bufferView" : 4,
            "componentType" : 5126,
            "count" : 4076,
            "max" : [
                2.944617986679077,
                8.195230484008789,
                -2.5872960090637207
            ],
            "min" : [
                -1.2546870708465576,
                0.9543219804763794,
                -6.079185962677002
            ],
            "type" : "VEC3"
        },
        {
            "bufferView" : 5,
            "componentType" : 5126,
            "count" : 4076,
            "type" : "VEC2"
        },
        {
            "bufferView" : 6,
            "componentType" : 5126,
            "count" : 4076,
            "type" : "VEC3"
        },
        {
            "bufferView" : 7,
            "componentType" : 5123,
            "count" : 9048,
            "type" : "SCALAR"
        },
        {
            "bufferView" : 8,
            "componentType" : 5126,
            "count" : 1970,
            "max" : [
                2.0999999046325684,
                7.516031265258789,
                -11.016600608825684
            ],
            "min" : [
                -1.3784140348434448,
                0.9620910286903381,
                -14.494993209838867
            ],
            "type" : "VEC3"
        },
        {
            "bufferView" : 9,
            "componentType" : 5126,
            "count" : 1970,
            "type" : "VEC2"
        },
        {
            "bufferView" : 10,
            "componentType" : 5126,
            "count" : 1970,
            "type" : "VEC3"
        },
        {
            "bufferView" : 11,
            "componentType" : 5123,
            "count" : 9840,
            "type" : "SCALAR"
        },
        {
            "bufferView" : 12,
            "componentType" : 5126,
            "count" : 5018,
            "max" : [
                2.509592056274414,
                9.420515060424805,
                6.743640899658203
            ],
            "min" : [
                -1.2269760370254517,
                0.9666489958763123,
                3.007072925567627
            ],
            "type" : "VEC3"
        },
        {
            "bufferView" : 13,
            "componentType" : 5126,
            "count" : 5018,
            "type" : "VEC2"
        },
        {
            "bufferView" : 14,
            "componentType" : 5126,
            "count" : 5018,
            "type" : "VEC3"
        },
        {
            "bufferView" : 15,
            "componentType" : 5123,
            "count" : 24192,
            "type" : "SCALAR"
        },
        {
            "bufferView" : 16,
            "componentType" : 5126,
            "count" : 4055,
            "max" : [
                2.185312032699585,
                7.160183906555176,
                -7.00978422164917
            ],
            "min" : [
                -1.3853230476379395,
                0.9096410274505615,
                -10.580416679382324
            ],
            "type" : "VEC3"
        },
        {
            "bufferView" : 17,
            "componentType" : 5126,
            "count" : 4055,
            "type" : "VEC2"
        },
        {
            "bufferView" : 18,
            "componentType" : 5126,
            "count" : 4055,
            "type" : "VEC3"
        },
        {
            "bufferView" : 19,
            "componentType" : 5123,
            "count" : 20112,
            "type" : "SCALAR"
        },
        {
            "bufferView" : 20,
            "componentType" : 5126,
            "count" : 2610,
            "max" : [
                2.485166072845459,
                10.039005279541016,
                11.40549087524414
            ],
            "min" : [
                -0.8686439990997314,
                0.9580109715461731,
                8.051685333251953
            ],
            "type" : "VEC3"
        },
        {
            "bufferView" : 21,
            "componentType" : 5126,
            "count" : 2610,
            "type" : "VEC2"
        },
        {
            "bufferView" : 22,
            "componentType" : 5126,
            "count" : 2610,
            "type" : "VEC3"
        },
        {
            "bufferView" : 23,
            "componentType" : 5123,
            "count" : 12876,
            "type" : "SCALAR"
        }
    ],
    "bufferViews" : [
        {
            "buffer" : 0,
            "byteLength" : 48192,
            "byteOffset" : 0,
            "target" : 34962
        },
        {
            "buffer" : 0,
            "byteLength" : 32128,
            "byteOffset" : 48192,
            "target" : 34962
        },
        {
            "buffer" : 0,
            "byteLength" : 48192,
            "byteOffset" : 80320,
            "target" : 34962
        },
        {
            "buffer" : 0,
            "byteLength" : 39348,
            "byteOffset" : 128512,
            "target" : 34963
        },
        {
            "buffer" : 0,
            "byteLength" : 48912,
            "byteOffset" : 167860,
            "target" : 34962
        },
        {
            "buffer" : 0,
            "byteLength" : 32608,
            "byteOffset" : 216772,
            "target" : 34962
        },
        {
            "buffer" : 0,
            "byteLength" : 48912,
            "byteOffset" : 249380,
            "target" : 34962
        },
        {
            "buffer" : 0,
            "byteLength" : 18096,
            "byteOffset" : 298292,
            "target" : 34963
        },
        {
            "buffer" : 0,
            "byteLength" : 23640,
            "byteOffset" : 316388,
            "target" : 34962
        },
        {
            "buffer" : 0,
            "byteLength" : 15760,
            "byteOffset" : 340028,
            "target" : 34962
        },
        {
            "buffer" : 0,
            "byteLength" : 23640,
            "byteOffset" : 355788,
            "target" : 34962
        },
        {
            "buffer" : 0,
            "byteLength" : 19680,
            "byteOffset" : 379428,
            "target" : 34963
        },
        {
            "buffer" : 0,
            "byteLength" : 60216,
            "byteOffset" : 399108,
            "target" : 34962
        },
        {
            "buffer" : 0,
            "byteLength" : 40144,
            "byteOffset" : 459324,
            "target" : 34962
        },
        {
            "buffer" : 0,
            "byteLength" : 60216,
            "byteOffset" : 499468,
            "target" : 34962
        },
        {
            "buffer" : 0,
            "byteLength" : 48384,
            "byteOffset" : 559684,
            "target" : 34963
        },
        {
            "buffer" : 0,
            "byteLength" : 48660,
            "byteOffset" : 608068,
            "target" : 34962
        },
        {
            "buffer" : 0,
            "byteLength" : 32440,
            "byteOffset" : 656728,
            "target" : 34962
        },
        {
            "buffer" : 0,
            "byteLength" : 48660,
            "byteOffset" : 689168,
            "target" : 34962
        },
        {
            "buffer" : 0,
            "byteLength" : 40224,
            "byteOffset" : 737828,
            "target" : 34963
        },
        {
            "buffer" : 0,
            "byteLength" : 31320,
            "byteOffset" : 778052,
            "target" : 34962
        },
        {
            "buffer" : 0,
            "byteLength" : 20880,
            "byteOffset" : 809372,
            "target" : 34962
        },
        {
            "buffer" : 0,
            "byteLength" : 31320,
            "byteOffset" : 830252,
            "target" : 34962
        },
        {
            "buffer" : 0,
            "byteLength" : 25752,
            "byteOffset" : 861572,
            "target" : 34963
        }
    ],
    "buffers" : [
        {
            "byteLength" : 887324,
            "uri" : "data:application/octet-stream;base64,"
        }
    ]
}
